<svg xmlns="http://www.w3.org/2000/svg" xmlns:xlink="http://www.w3.org/1999/xlink" viewBox="0 0 125 125"><defs><linearGradient id="Silver_04" x1="1.2431" y1="62.5" x2="123.7569" y2="62.5" gradientUnits="userSpaceOnUse"><stop offset="0" stop-color="#cbd1d6"/><stop offset="0.0891" stop-color="#c7ced2"/><stop offset="0.1696" stop-color="#bcc3c7"/><stop offset="0.2468" stop-color="#aab1b5"/><stop offset="0.2477" stop-color="#aab1b5"/><stop offset="0.2905" stop-color="#cad1d5"/><stop offset="0.3318" stop-color="#e1e8ec"/><stop offset="0.3706" stop-color="#eff6f9"/><stop offset="0.4045" stop-color="#f4fbfe"/><stop offset="0.6348" stop-color="#f4fbfe"/><stop offset="0.7528" stop-color="#979da1"/><stop offset="0.8258" stop-color="#b0b7bc"/><stop offset="0.8472" stop-color="#959b9f"/><stop offset="0.8706" stop-color="#7d8387"/><stop offset="0.8923" stop-color="#6f7478"/><stop offset="0.9101" stop-color="#6a6f73"/><stop offset="0.9251" stop-color="#71767a"/><stop offset="0.947" stop-color="#84898e"/><stop offset="0.9732" stop-color="#a4a9ae"/><stop offset="1" stop-color="#cbd1d6"/></linearGradient><linearGradient id="linear-gradient" x1="3.2259" y1="132.0731" x2="139.7861" y2="-28.2147" gradientTransform="translate(0 125) rotate(-90)" xlink:href="#Silver_04"/><linearGradient id="linear-gradient-2" x1="143.8277" y1="143.8277" x2="-14.9804" y2="-14.9804" gradientTransform="translate(0 125) rotate(-90)" xlink:href="#Silver_04"/><clipPath id="clip-path"><rect x="12.5725" y="12.5725" width="99.855" height="99.855" fill="none"/></clipPath><clipPath id="clip-path-2"><rect x="12.5725" y="12.5723" width="99.8552" height="99.8552" fill="none"/></clipPath></defs><g id="BUTTON"><rect x="1.2431" y="1.2431" width="122.5138" height="122.5138" rx="19.0552" fill="url(#Silver_04)"/><path d="M20.2983,2.7432h84.4033a17.5552,17.5552,0,0,1,17.5552,17.5552v84.4033a17.5552,17.5552,0,0,1-17.5552,17.5552H20.2979A17.5547,17.5547,0,0,1,2.7432,104.7021V20.2983A17.5552,17.5552,0,0,1,20.2983,2.7432Z" transform="translate(125 0) rotate(90)" fill="url(#linear-gradient)"/><path d="M20.2983,4.7432h84.4033a15.5552,15.5552,0,0,1,15.5552,15.5552v84.4038a15.5547,15.5547,0,0,1-15.5547,15.5547H20.2979A15.5547,15.5547,0,0,1,4.7432,104.7021V20.2983A15.5552,15.5552,0,0,1,20.2983,4.7432Z" transform="translate(125 0) rotate(90)" fill="url(#linear-gradient-2)"/><path d="M20.2983,6.2432h84.4033a14.0552,14.0552,0,0,1,14.0552,14.0552v84.4038a14.0547,14.0547,0,0,1-14.0547,14.0547H20.2979A14.0547,14.0547,0,0,1,6.2432,104.7021V20.2983A14.0552,14.0552,0,0,1,20.2983,6.2432Z" transform="translate(125) rotate(90)" fill="#d1d3d4"/><path d="M104.7021,119.0068H20.2983A14.3212,14.3212,0,0,1,5.9932,104.7021V20.2983A14.3215,14.3215,0,0,1,20.2983,5.9932h84.4038a14.3212,14.3212,0,0,1,14.3047,14.3051v84.4038A14.3208,14.3208,0,0,1,104.7021,119.0068ZM20.2983,6.4932A13.8206,13.8206,0,0,0,6.4932,20.2983v84.4038a13.82,13.82,0,0,0,13.8051,13.8047h84.4038a13.82,13.82,0,0,0,13.8047-13.8047V20.2983A13.82,13.82,0,0,0,104.7021,6.4932Z" fill="#414042"/></g><g id="Layer_12" data-name="Layer 12"><g clip-path="url(#clip-path)"><g clip-path="url(#clip-path-2)"><path d="M96.8105,43.72c1.15-.0035,1.31.8437,1.93.8965A3.8907,3.8907,0,0,0,99.81,41.92c-.0035-.8789.2607-1.7331,1.321-1.7331.937-.0018,1.1537.7221,1.2,1.5676.09,1.7155,1.3368,1.4936,2.4306,1.3439,1.1185-.1533,1.9216-1.0868,3.0137-1.4408-.7345,2.4377-3.3025,3.3641-7.0894,2.494a27.31,27.31,0,0,0-2.4641,7.0859,11.6619,11.6619,0,0,0-.4262,1.9762c-.1427,1.5024-.9987,2.0643-2.6244,2.0484.0563-2.94,1.2593-5.6732,1.1977-8.6235-.72,1.7684-1.43,3.5438-2.1647,5.3069a14.5912,14.5912,0,0,1-2.258,4.118c-.5865.6729-1.2418,1.4619-2.2581.9159a2.0985,2.0985,0,0,1-.9123-2.36c.2466-1.5535.5865-3.0929.9071-4.6358.118-.5742.4121-1.1378.044-1.7543-1.638.0476-2.3267.7926-2.2246,2.5293a9.3908,9.3908,0,0,1-2.457,7.4628,4.5255,4.5255,0,0,1-5.2893,1.0356c-1.4971-.8842-2.066-2.8111-1.5553-4.9845A6.657,6.657,0,0,1,79.8929,51.16c.4-.421.6781-.856-.0335-1.28-.6834-.0528-.7785.5636-1.0075.9863a65.2947,65.2947,0,0,0-4.7291,10.1805c-.3136.9212-.6729,1.6715-2.0678,1.6011-.694-2.02.1567-4.2395-.5091-6.3743-.701,1.6293-1.39,3.2391-2.0942,4.84a6.27,6.27,0,0,1-.56.9722c-.8736,1.2964-1.6327,2.9045-3.4346,2.86-1.83-.0422-2.0872-1.8864-2.9062-3.2813-.974.6552-1.3228,1.7613-1.9973,2.5838-.6641.8085-1.2717,1.668-1.9868,2.4272-.9934,1.0532-2.1154,1.9779-3.6988,1.59-1.6011-.391-1.8441-1.7648-2.0573-3.14a13.1528,13.1528,0,0,0-.4438-1.4936,4.7026,4.7026,0,0,0-.6024,2.54c-1.1572,6.3884-9.1554,14.26-15.5173,15.3148a7.0279,7.0279,0,0,1-3.2919-.2924,3.7509,3.7509,0,0,1-2.3814-5.2012c.9441-2.5363,4.731-5.1431,7.2374-4.4914-.2167.9476-1.12,1.1167-1.74,1.5676a6.2336,6.2336,0,0,0-2.6755,3.2021,2.11,2.11,0,0,0,1.8159,2.9379,6.2334,6.2334,0,0,0,2.4324-.0951C44.2946,77.22,49.2669,71.91,48.8653,64.0578a5.435,5.435,0,0,0-6.6314-5.2206,30.2778,30.2778,0,0,0-3.6249,1.078c-1.0215.3364-1.7683.2483-1.9093-1.0463.43-.8366,1.3439-.87,2.0432-1.2311,3.1052-1.6081,5.513-3.8239,6.376-7.3835.3628-1.4954.4386-2.9714-.7715-4.2114-1.8775-1.9269-3.73-1.6891-4.8524.7327-1.8617,4.0264-2.9256,8.3329-4.1814,12.5724-1.8283,6.1823-3.4963,12.4192-6.1629,18.3108a24.9672,24.9672,0,0,1-3.81,6.325c-4.1321,4.71-9.0374,3.7516-10.95-2.2545a12.0426,12.0426,0,0,1,2.5452-11.9806A6.1109,6.1109,0,0,1,22.26,67.4413c1.4214.1092,1.73.3312,2.6966,2.015a3.904,3.904,0,0,1-2.0221,1.5042c-1.74-2.42-2.7406-2.35-4.1708.3452a15.2472,15.2472,0,0,0-1.3756,11.1369c.8719,3.4839,3.4047,4.0792,5.9128,1.5112a14.44,14.44,0,0,0,2.8815-5.284c3.0612-8.1444,5.2946-16.5618,8.0106-24.8207a65.024,65.024,0,0,1,3.5314-8.7679C31.8913,47.4467,27.5056,50.6418,25.33,56.25a4.8744,4.8744,0,0,0,1.2346,5.8089c-3.4891.0986-5.3474-2.8181-4.1673-6.3408a12.7374,12.7374,0,0,1,3.14-4.8666A24.1271,24.1271,0,0,1,36.1115,44.426a11.4331,11.4331,0,0,0,4.6534-2.4747,6.05,6.05,0,0,1,4.1462-1.8177c-.9053,1.46-2.45,1.7719-3.026,3.2145,1.1237.31,2.2563.5372,3.3254.9352,2.9062,1.0815,4.0035,3.4487,3.1158,6.4659a9.2191,9.2191,0,0,1-3.0788,4.583c-.6112.5055-1.2206,1.0127-2.1717,1.8018,4.5266-.3276,7.6406,1.159,9.0338,5.3,1.0322-.55,1.0621-1.3386,1.2541-2.05a24.08,24.08,0,0,1,1.6926-4.6376,7.1267,7.1267,0,0,1,2.0485-2.6332c.856-.6306,1.8441-1.1572,2.8833-.5249,1.0409.6359,1.0286,1.7208.8542,2.8129-.4386,2.7336-2.2034,4.5442-4.2554,6.0942a2.2121,2.2121,0,0,0-1.011,2.67c.49,1.6873,1.2752,2.0519,2.4835.8225,2.3708-2.4095,4.41-4.981,4.6693-8.671a42.03,42.03,0,0,1,3.2549-13.5006,17.0909,17.0909,0,0,1,3.7728-5.7948c.7186-.694,1.5412-1.2858,2.5839-.7821a2.3239,2.3239,0,0,1,1.122,2.5082,16.03,16.03,0,0,1-.9582,4.38,72.27,72.27,0,0,1-6.8516,13.3773,5.3346,5.3346,0,0,0-.4333,4.731c.3523,1.136,1.1378,1.335,2.052.59a6.662,6.662,0,0,0,1.7948-2.5451,24.1325,24.1325,0,0,0,2.1329-6.8428c.1128-.9.4562-1.6433,1.45-1.6891,1.0146-.0458,1.166.8912,1.2787,1.5711.2008,1.2188.2026,2.4729.4351,3.7587,1.5324-3.3923,3.7992-6.4042,4.6711-10.0942.0352-.1462.0757-.2906.1232-.4333.2748-.8014.6147-1.7543,1.6222-1.46,1.0533.3082.7785,1.284.5055,2.0907-.3769,1.1219-1.0268,2.2791.8578,3.2743-.8014-1.3862-.9194-2.4853.3347-3.2743,1.2294-.7768,2.4552-.4368,4.7309,1.2945,2.3884-.2148,3.3906-2.8058,5.9357-3.5543-.5425,3.5191-1.9621,6.5539-1.742,9.9374,2.8921-2.8076,3.0577-7.195,5.4091-10.14M85.4023,49.8826c-2.08-.1779-2.2721-.1532-3.1845.9459a8.1309,8.1309,0,0,0-1.8793,5.8035c.0387.7733.1251,1.5447.9987,1.7931a1.6855,1.6855,0,0,0,1.8758-.8895,11.5535,11.5535,0,0,0,2.1893-7.653M65.3408,54.3212c2.5345-4.2237,4.9475-8.5055,6.2386-13.3157a2.2924,2.2924,0,0,0-.421-2.5733c-3.4275,4.9018-4.8965,10.2844-5.8176,15.889m-6.5892-.458a9.5407,9.5407,0,0,0-2.4729,5.9639c1.2224-1.742,2.6737-3.2708,2.4729-5.9639" fill="#231f20"/><path d="M96.8105,43.72c1.15-.0035,1.31.8437,1.93.8965A3.8907,3.8907,0,0,0,99.81,41.92c-.0035-.8789.2607-1.7331,1.321-1.7331.937-.0018,1.1537.7221,1.2,1.5676.09,1.7155,1.3368,1.4936,2.4306,1.3439,1.1185-.1533,1.9216-1.0868,3.0137-1.4408-.7345,2.4377-3.3025,3.3641-7.0894,2.494a27.31,27.31,0,0,0-2.4641,7.0859,11.6619,11.6619,0,0,0-.4262,1.9762c-.1427,1.5024-.9987,2.0643-2.6244,2.0484.0563-2.94,1.2593-5.6732,1.1977-8.6235-.72,1.7684-1.43,3.5438-2.1647,5.3069a14.5912,14.5912,0,0,1-2.258,4.118c-.5865.6729-1.2418,1.4619-2.2581.9159a2.0985,2.0985,0,0,1-.9123-2.36c.2466-1.5535.5865-3.0929.9071-4.6358.118-.5742.4121-1.1378.044-1.7543-1.638.0476-2.3267.7926-2.2246,2.5293a9.3908,9.3908,0,0,1-2.457,7.4628,4.5255,4.5255,0,0,1-5.2893,1.0356c-1.4971-.8842-2.066-2.8111-1.5553-4.9845A6.657,6.657,0,0,1,79.8929,51.16c.4-.421.6781-.856-.0335-1.28-.6834-.0528-.7785.5636-1.0075.9863a65.2947,65.2947,0,0,0-4.7291,10.1805c-.3136.9212-.6729,1.6715-2.0678,1.6011-.694-2.02.1567-4.2395-.5091-6.3743-.701,1.6293-1.39,3.2391-2.0942,4.84a6.27,6.27,0,0,1-.56.9722c-.8736,1.2964-1.6327,2.9045-3.4346,2.86-1.83-.0422-2.0872-1.8864-2.9062-3.2813-.974.6552-1.3228,1.7613-1.9973,2.5838-.6641.8085-1.2717,1.668-1.9868,2.4272-.9934,1.0532-2.1154,1.9779-3.6988,1.59-1.6011-.391-1.8441-1.7648-2.0573-3.14a13.1528,13.1528,0,0,0-.4438-1.4936,4.7026,4.7026,0,0,0-.6024,2.54c-1.1572,6.3884-9.1554,14.26-15.5173,15.3148a7.0279,7.0279,0,0,1-3.2919-.2924,3.7509,3.7509,0,0,1-2.3814-5.2012c.9441-2.5363,4.731-5.1431,7.2374-4.4914-.2167.9476-1.12,1.1167-1.74,1.5676a6.2336,6.2336,0,0,0-2.6755,3.2021,2.11,2.11,0,0,0,1.8159,2.9379,6.2334,6.2334,0,0,0,2.4324-.0951C44.2946,77.22,49.2669,71.91,48.8653,64.0578a5.435,5.435,0,0,0-6.6314-5.2206,30.2778,30.2778,0,0,0-3.6249,1.078c-1.0215.3364-1.7683.2483-1.9093-1.0463.43-.8366,1.3439-.87,2.0432-1.2311,3.1052-1.6081,5.513-3.8239,6.376-7.3835.3628-1.4954.4386-2.9714-.7715-4.2114-1.8775-1.9269-3.73-1.6891-4.8524.7327-1.8617,4.0264-2.9256,8.3329-4.1814,12.5724-1.8283,6.1823-3.4963,12.4192-6.1629,18.3108a24.9672,24.9672,0,0,1-3.81,6.325c-4.1321,4.71-9.0374,3.7516-10.95-2.2545a12.0426,12.0426,0,0,1,2.5452-11.9806A6.1109,6.1109,0,0,1,22.26,67.4413c1.4214.1092,1.73.3312,2.6966,2.015a3.904,3.904,0,0,1-2.0221,1.5042c-1.74-2.42-2.7406-2.35-4.1708.3452a15.2472,15.2472,0,0,0-1.3756,11.1369c.8719,3.4839,3.4047,4.0792,5.9128,1.5112a14.44,14.44,0,0,0,2.8815-5.284c3.0612-8.1444,5.2946-16.5618,8.0106-24.8207a65.024,65.024,0,0,1,3.5314-8.7679C31.8913,47.4467,27.5056,50.6418,25.33,56.25a4.8744,4.8744,0,0,0,1.2346,5.8089c-3.4891.0986-5.3474-2.8181-4.1673-6.3408a12.7374,12.7374,0,0,1,3.14-4.8666A24.1271,24.1271,0,0,1,36.1115,44.426a11.4331,11.4331,0,0,0,4.6534-2.4747,6.05,6.05,0,0,1,4.1462-1.8177c-.9053,1.46-2.45,1.7719-3.026,3.2145,1.1237.31,2.2563.5372,3.3254.9352,2.9062,1.0815,4.0035,3.4487,3.1158,6.4659a9.2191,9.2191,0,0,1-3.0788,4.583c-.6112.5055-1.2206,1.0127-2.1717,1.8018,4.5266-.3276,7.6406,1.159,9.0338,5.3,1.0322-.55,1.0621-1.3386,1.2541-2.05a24.08,24.08,0,0,1,1.6926-4.6376,7.1267,7.1267,0,0,1,2.0485-2.6332c.856-.6306,1.8441-1.1572,2.8833-.5249,1.0409.6359,1.0286,1.7208.8542,2.8129-.4386,2.7336-2.2034,4.5442-4.2554,6.0942a2.2121,2.2121,0,0,0-1.011,2.67c.49,1.6873,1.2752,2.0519,2.4835.8225,2.3708-2.4095,4.41-4.981,4.6693-8.671a42.03,42.03,0,0,1,3.2549-13.5006,17.0909,17.0909,0,0,1,3.7728-5.7948c.7186-.694,1.5412-1.2858,2.5839-.7821a2.3239,2.3239,0,0,1,1.122,2.5082,16.03,16.03,0,0,1-.9582,4.38,72.27,72.27,0,0,1-6.8516,13.3773,5.3346,5.3346,0,0,0-.4333,4.731c.3523,1.136,1.1378,1.335,2.052.59a6.662,6.662,0,0,0,1.7948-2.5451,24.1325,24.1325,0,0,0,2.1329-6.8428c.1128-.9.4562-1.6433,1.45-1.6891,1.0146-.0458,1.166.8912,1.2787,1.5711.2008,1.2188.2026,2.4729.4351,3.7587,1.5324-3.3923,3.7992-6.4042,4.6711-10.0942.0352-.1462.0757-.2906.1232-.4333.2748-.8014.6147-1.7543,1.6222-1.46,1.0533.3082.7785,1.284.5055,2.0907-.3769,1.1219-1.0268,2.2791.8578,3.2743-.8014-1.3862-.9194-2.4853.3347-3.2743,1.2294-.7768,2.4552-.4368,4.7309,1.2945,2.3884-.2148,3.3906-2.8058,5.9357-3.5543-.5425,3.5191-1.9621,6.5539-1.742,9.9374C94.2935,51.0521,94.4591,46.6647,96.8105,43.72ZM85.4023,49.8826c-2.08-.1779-2.2721-.1532-3.1845.9459a8.1309,8.1309,0,0,0-1.8793,5.8035c.0387.7733.1251,1.5447.9987,1.7931a1.6855,1.6855,0,0,0,1.8758-.8895A11.5535,11.5535,0,0,0,85.4023,49.8826ZM65.3408,54.3212c2.5345-4.2237,4.9475-8.5055,6.2386-13.3157a2.2924,2.2924,0,0,0-.421-2.5733C67.7309,43.334,66.2619,48.7166,65.3408,54.3212Zm-6.5892-.458a9.5407,9.5407,0,0,0-2.4729,5.9639C57.5011,58.0851,58.9524,56.5563,58.7516,53.8632Z" fill="none" stroke="#fbf7c6" stroke-miterlimit="10" stroke-width="0.5"/><path d="M73.1746,67.9851c1.8635-.1057,1.786-2.36,3.0648-3.0436.9088.5425.1743,1.37.5689,1.9181,1.3174.1356,2.0378-.9547,3.3236-1.8847A3.736,3.736,0,0,1,77.7171,67.83c-2.0625.9511-2.1259,1.1254-1.4936,3.579,1.0779.2113.8631-1.3122,1.756-1.3633-.3258,2.7635-1.6591,3.6319-3.8027,2.4782-.6129.4227-.7767,1.5306-1.5041,1.5482a11.5437,11.5437,0,0,0-3.3307.9318c-.236.0775-.6271-.3241-.9758-.5214-.7239.384-.9406,1.5887-2.0643,1.4267-1.0321-.1673-.4826-2.08-2.0167-1.7508-1.2893.6447-.4562,2.7336-1.9956,3.4434-.9476-1.0585-.111-2.184-.2254-3.3536-.4.2026-.6588.3241-.9107.4615-2.3425,1.2823-2.3531,1.2858-1.6891,3.9a11.2247,11.2247,0,0,1-.516,7.4839c-.2924.664-.6165,1.5007-1.5377,1.3844-.9793-.125-.9035-1.0286-1.0057-1.76a24.9978,24.9978,0,0,1,.2748-6.2809,8.1379,8.1379,0,0,0,.1743-2.2545c-.3857-.819-1.4971.0441-1.948-.944-.074-1.6434,1.5059-.81,2.2492-1.2911a1.8459,1.8459,0,0,0,.3135-1.7684c-3.2021.4932-4.8436,3.2233-7.1474,5.5852a3.0558,3.0558,0,0,1,1.3562-3.28A19.4006,19.4006,0,0,1,56.31,72.3866a3.9109,3.9109,0,0,0,2.3989-2.9749,5.2609,5.2609,0,0,1,1.284-2.5891c.5284-.5777,1.1854-1.0075,1.971-.5725.708.3946.6288,1.15.5143,1.816A4.1216,4.1216,0,0,1,61.0126,70.53a4.2619,4.2619,0,0,0-1.5446,3.5033c2.1329.0528,3.6741-2.5434,6.1153-1.3809.5865-.1568.4667-1.3457,1.4355-1.3774.8859.8208-.1515,1.823.2166,2.7512,1.6486-.6429.6552-3.0559,2.3866-3.6935.9282.9916-.398,2.0837.3276,3.0911,1.904-.6023.4756-3.5631,2.6015-4.051.6676,1.0057-.074,2.0026.3276,3.1158a6.5418,6.5418,0,0,0,1.5465-3.3413c-.0705-1.1942-1.7032.6552-1.4249-.9881.0563-.06.1144-.1162.1743-.1743M58.589,80.1946a11.3111,11.3111,0,0,0-.4509,4.7644c.78-1.6345.5161-3.2162.4509-4.7644" fill="#231f20"/><path d="M73.1746,67.9851c1.8635-.1057,1.786-2.36,3.0648-3.0436.9088.5425.1743,1.37.5689,1.9181,1.3174.1356,2.0378-.9547,3.3236-1.8847A3.736,3.736,0,0,1,77.7171,67.83c-2.0625.9511-2.1259,1.1254-1.4936,3.579,1.0779.2113.8631-1.3122,1.756-1.3633-.3258,2.7635-1.6591,3.6319-3.8027,2.4782-.6129.4227-.7767,1.5306-1.5041,1.5482a11.5437,11.5437,0,0,0-3.3307.9318c-.236.0775-.6271-.3241-.9758-.5214-.7239.384-.9406,1.5887-2.0643,1.4267-1.0321-.1673-.4826-2.08-2.0167-1.7508-1.2893.6447-.4562,2.7336-1.9956,3.4434-.9476-1.0585-.111-2.184-.2254-3.3536-.4.2026-.6588.3241-.9107.4615-2.3425,1.2823-2.3531,1.2858-1.6891,3.9a11.2247,11.2247,0,0,1-.516,7.4839c-.2924.664-.6165,1.5007-1.5377,1.3844-.9793-.125-.9035-1.0286-1.0057-1.76a24.9978,24.9978,0,0,1,.2748-6.2809,8.1379,8.1379,0,0,0,.1743-2.2545c-.3857-.819-1.4971.0441-1.948-.944-.074-1.6434,1.5059-.81,2.2492-1.2911a1.8459,1.8459,0,0,0,.3135-1.7684c-3.2021.4932-4.8436,3.2233-7.1474,5.5852a3.0558,3.0558,0,0,1,1.3562-3.28A19.4006,19.4006,0,0,1,56.31,72.3866a3.9109,3.9109,0,0,0,2.3989-2.9749,5.2609,5.2609,0,0,1,1.284-2.5891c.5284-.5777,1.1854-1.0075,1.971-.5725.708.3946.6288,1.15.5143,1.816A4.1216,4.1216,0,0,1,61.0126,70.53a4.2619,4.2619,0,0,0-1.5446,3.5033c2.1329.0528,3.6741-2.5434,6.1153-1.3809.5865-.1568.4667-1.3457,1.4355-1.3774.8859.8208-.1515,1.823.2166,2.7512,1.6486-.6429.6552-3.0559,2.3866-3.6935.9282.9916-.398,2.0837.3276,3.0911,1.904-.6023.4756-3.5631,2.6015-4.051.6676,1.0057-.074,2.0026.3276,3.1158a6.5418,6.5418,0,0,0,1.5465-3.3413c-.0705-1.1942-1.7032.6552-1.4249-.9881C73.0566,68.1,73.1147,68.0432,73.1746,67.9851ZM58.589,80.1946a11.3111,11.3111,0,0,0-.4509,4.7644C58.9184,83.3245,58.6542,81.7428,58.589,80.1946Z" fill="none" stroke="#fbf7c6" stroke-miterlimit="10" stroke-width="0.5"/><path d="M92.8376,66.57c-.5936,2.0326-2.73.9476-3.6829,2.0062-1.2083-.4915-.8543-1.3756-.7838-2.2845-.9089.0986-1.45.7186-2.2492,1.1942a11.3449,11.3449,0,0,1,.46,7.4839,17,17,0,0,1-.8243,2.3161c-.2995.6623-.6007,1.4954-1.5659,1.2823-.78-.1744-.8542-.9124-1.0057-1.5852-.5407-2.4042.0916-4.775.16-7.16.0123-.44.2413-.87.0335-1.3651-.5355-.5741-1.67-.0123-2.0626-1.0286.3646-1.4636,2.1436-.1673,2.6755-1.3439C83.92,64.87,82.1305,65.45,82.09,64.02c2.4042.8454,2.8568-.8683,3.313-2.5909a6.8731,6.8731,0,0,1,.9828-2.2493c.4879-.6816,1.0727-1.453,1.9921-.9916.96.4844.8736,1.42.5813,2.362a6.8335,6.8335,0,0,1-1.95,2.9572,3.6631,3.6631,0,0,0-1.2488,2.5769c2.8375.15,3.7675-3.8662,6.848-3.2708.2537,1.2611-.5477,2.2281-.5,3.32a.5075.5075,0,0,0,.1938.0123,1.1274,1.1274,0,0,0,.21-.0722c.1092.1656.2166.3311.3258.4967M84.894,75.4559c.9987-1.8089.72-3.7322.4139-5.6591a13.2089,13.2089,0,0,0-.4139,5.6591M90.9,64.1517c-.2871.7908-1.2047,1.3527-.8577,2.6244A4.306,4.306,0,0,0,90.9,64.1517" fill="#231f20"/><path d="M92.8376,66.57c-.5936,2.0326-2.73.9476-3.6829,2.0062-1.2083-.4915-.8543-1.3756-.7838-2.2845-.9089.0986-1.45.7186-2.2492,1.1942a11.3449,11.3449,0,0,1,.46,7.4839,17,17,0,0,1-.8243,2.3161c-.2995.6623-.6007,1.4954-1.5659,1.2823-.78-.1744-.8542-.9124-1.0057-1.5852-.5407-2.4042.0916-4.775.16-7.16.0123-.44.2413-.87.0335-1.3651-.5355-.5741-1.67-.0123-2.0626-1.0286.3646-1.4636,2.1436-.1673,2.6755-1.3439C83.92,64.87,82.1305,65.45,82.09,64.02c2.4042.8454,2.8568-.8683,3.313-2.5909a6.8731,6.8731,0,0,1,.9828-2.2493c.4879-.6816,1.0727-1.453,1.9921-.9916.96.4844.8736,1.42.5813,2.362a6.8335,6.8335,0,0,1-1.95,2.9572,3.6631,3.6631,0,0,0-1.2488,2.5769c2.8375.15,3.7675-3.8662,6.848-3.2708.2537,1.2611-.5477,2.2281-.5,3.32a.5075.5075,0,0,0,.1938.0123,1.1274,1.1274,0,0,0,.21-.0722C92.621,66.2389,92.7284,66.4044,92.8376,66.57ZM84.894,75.4559c.9987-1.8089.72-3.7322.4139-5.6591A13.2089,13.2089,0,0,0,84.894,75.4559ZM90.9,64.1517c-.2871.7908-1.2047,1.3527-.8577,2.6244A4.306,4.306,0,0,0,90.9,64.1517Z" fill="none" stroke="#fbf7c6" stroke-miterlimit="10" stroke-width="0.5"/><path d="M104.2047,62.3266c-.9141.5936-1.2223,1.8987-2.4271,2.1576-1.0251-.47-.317-1.3086-.3734-2.0431-.849.8208-.7715,2.2386-2.0079,2.605-.8965-.3329-.2836-1.2136-.6218-1.73-.8824.6763-.1514,2.4165-1.7243,2.5786-.8278-.5795-.0264-1.4443-.41-2.0872-.6746-.4474-1.2453-.4368-1.55.4333-.2712.7714-.4227,1.5957-.7626,2.3337-.4333.9353-.9969,1.1026-1.49-.0053-.1092-.1655-.2167-.3311-.3259-.4966.2995-.8437.5566-1.7033.9054-2.5258.6393-1.5077,1.8723-1.9586,3.586-1.2858.24-2.0766,2.0731-1.2153,3.1775-1.985.1655.539.27.8807.3839,1.2523.8032-.3787.7363-1.6926,1.8265-1.756.9987.5971.3365,1.4724.3963,2.4112.7768-.1955,1.0973-1.3016,1.99-1.0621Z" fill="#231f20"/><path d="M104.2047,62.3266c-.9141.5936-1.2223,1.8987-2.4271,2.1576-1.0251-.47-.317-1.3086-.3734-2.0431-.849.8208-.7715,2.2386-2.0079,2.605-.8965-.3329-.2836-1.2136-.6218-1.73-.8824.6763-.1514,2.4165-1.7243,2.5786-.8278-.5795-.0264-1.4443-.41-2.0872-.6746-.4474-1.2453-.4368-1.55.4333-.2712.7714-.4227,1.5957-.7626,2.3337-.4333.9353-.9969,1.1026-1.49-.0053-.1092-.1655-.2167-.3311-.3259-.4966.2995-.8437.5566-1.7033.9054-2.5258.6393-1.5077,1.8723-1.9586,3.586-1.2858.24-2.0766,2.0731-1.2153,3.1775-1.985.1655.539.27.8807.3839,1.2523.8032-.3787.7363-1.6926,1.8265-1.756.9987.5971.3365,1.4724.3963,2.4112.7768-.1955,1.0973-1.3016,1.99-1.0621Z" fill="none" stroke="#fbf7c6" stroke-miterlimit="10" stroke-width="0.5"/><path d="M104.2047,62.3266l.5724-1.2048c.43-1.0444.1973-2.4253,1.513-3.04.6429.3875.1867,1.328.9864,1.8a5.7615,5.7615,0,0,0,2.0079-.1973,2.3343,2.3343,0,0,1,1.9181.4491c-.1762.2149-.3347.5284-.43.5091-1.7913-.3382-3.195-.0317-3.808,1.9885-.1127.3734-.5918.6535-.9405.9247a1.3507,1.3507,0,0,1-1.4373.3435c-.7521-.3488-.4491-.9987-.3822-1.5729" fill="#231f20"/><path d="M104.2047,62.3266l.5724-1.2048c.43-1.0444.1973-2.4253,1.513-3.04.6429.3875.1867,1.328.9864,1.8a5.7615,5.7615,0,0,0,2.0079-.1973,2.3343,2.3343,0,0,1,1.9181.4491c-.1762.2149-.3347.5284-.43.5091-1.7913-.3382-3.195-.0317-3.808,1.9885-.1127.3734-.5918.6535-.9405.9247a1.3507,1.3507,0,0,1-1.4373.3435C103.8348,63.5507,104.1378,62.9008,104.2047,62.3266Z" fill="none" stroke="#fbf7c6" stroke-miterlimit="10" stroke-width="0.5"/><path d="M94.4263,38.6751a4.29,4.29,0,0,1,.1832.812c-.03,1.1272-.3452,2.1294-1.631,2.2386-.5759.0493-.9018-.5425-.7873-1.1114.2272-1.1149.56-2.1964,2.2351-1.9392" fill="#231f20"/><path d="M94.4263,38.6751a4.29,4.29,0,0,1,.1832.812c-.03,1.1272-.3452,2.1294-1.631,2.2386-.5759.0493-.9018-.5425-.7873-1.1114C92.4184,39.4994,92.7513,38.4179,94.4263,38.6751Z" fill="none" stroke="#fbf7c6" stroke-miterlimit="10" stroke-width="0.5"/><path d="M73,68.1594c-1.4461-.8419-1.4584-.9881-.1533-1.9973.6623.5072.2607,1.21.3294,1.823-.0617.0581-.12.1144-.1761.1743" fill="#231f20"/><path d="M73,68.1594c-1.4461-.8419-1.4584-.9881-.1533-1.9973.6623.5072.2607,1.21.3294,1.823C73.114,68.0432,73.0559,68.1,73,68.1594Z" fill="none" stroke="#fbf7c6" stroke-miterlimit="10" stroke-width="0.5"/></g></g></g></svg>