<svg xmlns="http://www.w3.org/2000/svg" xmlns:xlink="http://www.w3.org/1999/xlink" viewBox="0 0 100 100"><defs><linearGradient id="Silver_04" x1="0.3598" y1="49.9762" x2="100" y2="49.9762" gradientUnits="userSpaceOnUse"><stop offset="0" stop-color="#cbd1d6"/><stop offset="0.0891" stop-color="#c7ced2"/><stop offset="0.1696" stop-color="#bcc3c7"/><stop offset="0.2468" stop-color="#aab1b5"/><stop offset="0.2477" stop-color="#aab1b5"/><stop offset="0.2905" stop-color="#cad1d5"/><stop offset="0.3318" stop-color="#e1e8ec"/><stop offset="0.3706" stop-color="#eff6f9"/><stop offset="0.4045" stop-color="#f4fbfe"/><stop offset="0.6348" stop-color="#f4fbfe"/><stop offset="0.7528" stop-color="#979da1"/><stop offset="0.8258" stop-color="#b0b7bc"/><stop offset="0.8472" stop-color="#959b9f"/><stop offset="0.8706" stop-color="#7d8387"/><stop offset="0.8923" stop-color="#6f7478"/><stop offset="0.9101" stop-color="#6a6f73"/><stop offset="0.9251" stop-color="#71767a"/><stop offset="0.947" stop-color="#84898e"/><stop offset="0.9732" stop-color="#a4a9ae"/><stop offset="1" stop-color="#cbd1d6"/></linearGradient><linearGradient id="linear-gradient" x1="1.9724" y1="106.5599" x2="113.0365" y2="-23.8019" gradientTransform="translate(0.2037 100.1561) rotate(-90)" xlink:href="#Silver_04"/><linearGradient id="linear-gradient-2" x1="116.3235" y1="116.1198" x2="-12.8347" y2="-13.0384" gradientTransform="translate(0.2037 100.1561) rotate(-90)" xlink:href="#Silver_04"/></defs><g id="Layer_1" data-name="Layer 1"><rect x="0.3598" y="0.1561" width="99.6402" height="99.6402" rx="15.4976" fill="url(#Silver_04)"/><path d="M15.857,1.3761H84.5024A14.2776,14.2776,0,0,1,98.78,15.6537V84.2991A14.2772,14.2772,0,0,1,84.5028,98.5763H15.857A14.2772,14.2772,0,0,1,1.58,84.2991V15.6533A14.2772,14.2772,0,0,1,15.857,1.3761Z" transform="translate(100.1561 -0.2037) rotate(90)" fill="url(#linear-gradient)"/><path d="M15.857,3.0027H84.5024a12.651,12.651,0,0,1,12.651,12.651v68.645A12.651,12.651,0,0,1,84.5024,96.95H15.857A12.6506,12.6506,0,0,1,3.2064,84.2991V15.6533A12.6506,12.6506,0,0,1,15.857,3.0027Z" transform="translate(100.1561 -0.2037) rotate(90)" fill="url(#linear-gradient-2)"/><path d="M15.8574,4.2226h68.645a11.431,11.431,0,0,1,11.431,11.431V84.2991A11.4306,11.4306,0,0,1,84.5028,95.73H15.857A11.4306,11.4306,0,0,1,4.4263,84.2991V15.6537A11.431,11.431,0,0,1,15.8574,4.2226Z" transform="translate(100.1561 -0.2037) rotate(90)" fill="#d1d3d4"/><path d="M84.5028,95.9331H15.8574A11.6475,11.6475,0,0,1,4.223,84.2991V15.6537A11.6477,11.6477,0,0,1,15.8574,4.0193H84.5028a11.6474,11.6474,0,0,1,11.634,11.6344V84.2991A11.6471,11.6471,0,0,1,84.5028,95.9331ZM15.8574,4.426A11.24,11.24,0,0,0,4.63,15.6537V84.2991A11.24,11.24,0,0,0,15.8574,95.5264H84.5028A11.24,11.24,0,0,0,95.73,84.2991V15.6537A11.24,11.24,0,0,0,84.5028,4.426Z" fill="#414042"/></g><g id="Github"><path d="M53.7426,6.6343a60.49,60.49,0,0,1,7.8246,1.451,41.1623,41.1623,0,0,1,13.9382,6.6532,44.6239,44.6239,0,0,1,18.3174,32.279,45.9475,45.9475,0,0,1-2.1377,18.2737,45.0672,45.0672,0,0,1-10.8038,17.41,42.7083,42.7083,0,0,1-16.297,10.3257c-.1878.0691-.3771.136-.57.19-1.9193.5429-3.2615-.4386-3.2652-2.4353-.0073-3.921.0126-7.8421.03-11.7631a14.2612,14.2612,0,0,0-.4345-3.9951,8.7777,8.7777,0,0,0-1.9219-3.6953c-.1609-.1735-.4927-.3176-.3512-.6137.1232-.2576.448-.1983.6984-.2289a30.5427,30.5427,0,0,0,7.6558-1.8138A16.7609,16.7609,0,0,0,76.8869,56.8949a25.83,25.83,0,0,0,.5013-12.5607,15.8322,15.8322,0,0,0-3.465-6.82,1.3762,1.3762,0,0,1-.28-1.474,16.3225,16.3225,0,0,0-.4484-10.3569.8709.8709,0,0,0-.97-.6341,14.6946,14.6946,0,0,0-6.1611,1.6562,28.7586,28.7586,0,0,0-4.32,2.461,1.7826,1.7826,0,0,1-1.5985.2784A40.2651,40.2651,0,0,0,50.05,28.1656a39.8274,39.8274,0,0,0-10.1826,1.2561,1.9921,1.9921,0,0,1-1.7536-.3044A24.4676,24.4676,0,0,0,29.1548,25.15c-1.99-.3574-2.2508-.2207-2.7856,1.6784a15.8857,15.8857,0,0,0-.0356,9.3783,1.0875,1.0875,0,0,1-.22,1.1717c-3.5149,4.1175-4.4716,8.9393-3.978,14.2024a26.1478,26.1478,0,0,0,1.7916,7.9109,17.4876,17.4876,0,0,0,4.4767,6.1053c3.1988,2.9114,7.13,3.9662,11.2137,4.7063.5618.1019,1.1329.1513,1.6966.2441.4189.0689.6549.216.2664.6535a9.4229,9.4229,0,0,0-2.2413,4.93.9721.9721,0,0,1-.6981.7857c-4.5977,1.8041-9.26,1.1389-12.1247-3.5592a10.0362,10.0362,0,0,0-4.2539-4.1155,5.2569,5.2569,0,0,0-3.7307-.58c-.88.247-1.004.6527-.378,1.33a4.7449,4.7449,0,0,0,.9771.83,12.2234,12.2234,0,0,1,4.9179,6.1171c1.507,3.7556,4.397,5.5389,8.2449,6.09a6.3474,6.3474,0,0,0,2.69.28c1.0549-.31,2.1549-.2568,3.1983-.5456.7586-.21.9751.1.9741.8037-.0035,2.4041.0351,4.8083.0239,7.2124-.0094,2.0039-1.4274,3.0185-3.3624,2.3967a40.6594,40.6594,0,0,1-7.5092-3.3533,38.5328,38.5328,0,0,1-8.034-5.8405A45.5309,45.5309,0,0,1,8.7509,66.8175,44.2307,44.2307,0,0,1,6.1244,55.3091a2.384,2.384,0,0,0-.1079-.4127V47.1676a3.683,3.683,0,0,0,.1127-.4986A44.6492,44.6492,0,0,1,24.4273,14.737,40.9942,40.9942,0,0,1,38.3645,8.0847a60.4817,60.4817,0,0,1,7.8244-1.45Z"/></g></svg>