<svg xmlns="http://www.w3.org/2000/svg" xmlns:xlink="http://www.w3.org/1999/xlink" viewBox="0 0 100 100"><defs><linearGradient id="Silver_04" x1="0.3598" y1="49.9762" x2="100" y2="49.9762" gradientUnits="userSpaceOnUse"><stop offset="0" stop-color="#cbd1d6"/><stop offset="0.0891" stop-color="#c7ced2"/><stop offset="0.1696" stop-color="#bcc3c7"/><stop offset="0.2468" stop-color="#aab1b5"/><stop offset="0.2477" stop-color="#aab1b5"/><stop offset="0.2905" stop-color="#cad1d5"/><stop offset="0.3318" stop-color="#e1e8ec"/><stop offset="0.3706" stop-color="#eff6f9"/><stop offset="0.4045" stop-color="#f4fbfe"/><stop offset="0.6348" stop-color="#f4fbfe"/><stop offset="0.7528" stop-color="#979da1"/><stop offset="0.8258" stop-color="#b0b7bc"/><stop offset="0.8472" stop-color="#959b9f"/><stop offset="0.8706" stop-color="#7d8387"/><stop offset="0.8923" stop-color="#6f7478"/><stop offset="0.9101" stop-color="#6a6f73"/><stop offset="0.9251" stop-color="#71767a"/><stop offset="0.947" stop-color="#84898e"/><stop offset="0.9732" stop-color="#a4a9ae"/><stop offset="1" stop-color="#cbd1d6"/></linearGradient><linearGradient id="linear-gradient" x1="1.9724" y1="106.5599" x2="113.0365" y2="-23.8019" gradientTransform="translate(0.2037 100.1561) rotate(-90)" xlink:href="#Silver_04"/><linearGradient id="linear-gradient-2" x1="116.3235" y1="116.1198" x2="-12.8347" y2="-13.0384" gradientTransform="translate(0.2037 100.1561) rotate(-90)" xlink:href="#Silver_04"/></defs><g id="Layer_1" data-name="Layer 1"><rect x="0.3598" y="0.1561" width="99.6402" height="99.6402" rx="15.4976" fill="url(#Silver_04)"/><path d="M15.857,1.3761H84.5024A14.2776,14.2776,0,0,1,98.78,15.6537V84.2991A14.2772,14.2772,0,0,1,84.5028,98.5763H15.857A14.2772,14.2772,0,0,1,1.58,84.2991V15.6533A14.2772,14.2772,0,0,1,15.857,1.3761Z" transform="translate(100.1561 -0.2037) rotate(90)" fill="url(#linear-gradient)"/><path d="M15.857,3.0027H84.5024a12.651,12.651,0,0,1,12.651,12.651v68.645A12.651,12.651,0,0,1,84.5024,96.95H15.857A12.6506,12.6506,0,0,1,3.2064,84.2991V15.6533A12.6506,12.6506,0,0,1,15.857,3.0027Z" transform="translate(100.1561 -0.2037) rotate(90)" fill="url(#linear-gradient-2)"/><path d="M15.8574,4.2226h68.645a11.431,11.431,0,0,1,11.431,11.431V84.2991A11.4306,11.4306,0,0,1,84.5028,95.73H15.857A11.4306,11.4306,0,0,1,4.4263,84.2991V15.6537A11.431,11.431,0,0,1,15.8574,4.2226Z" transform="translate(100.1561 -0.2037) rotate(90)" fill="#d1d3d4"/><path d="M84.5028,95.9331H15.8574A11.6475,11.6475,0,0,1,4.223,84.2991V15.6537A11.6477,11.6477,0,0,1,15.8574,4.0193H84.5028a11.6474,11.6474,0,0,1,11.634,11.6344V84.2991A11.6471,11.6471,0,0,1,84.5028,95.9331ZM15.8574,4.426A11.24,11.24,0,0,0,4.63,15.6537V84.2991A11.24,11.24,0,0,0,15.8574,95.5264H84.5028A11.24,11.24,0,0,0,95.73,84.2991V15.6537A11.24,11.24,0,0,0,84.5028,4.426Z" fill="#414042"/></g><g id="LinkedIn"><rect x="19.9473" y="20.9597" width="62.6864" height="59.9234" fill="#fff"/><path d="M10.6267,86.2V13.7527a13.5552,13.5552,0,0,1,3.15-3.15H86.2234a8.821,8.821,0,0,1,3.15,3.15V86.2a7.8048,7.8048,0,0,1-3.15,3.15H13.7766A8.8245,8.8245,0,0,1,10.6267,86.2ZM52.5661,42.0557a7.3525,7.3525,0,0,1-.3-2.8319c-.019-.8511-.3671-1.3067-1.2555-1.3031-2.3315.0093-4.6632.0058-6.9947.0076a1.041,1.041,0,0,0-1.16,1.2c.0009.35-.013.6994-.013,1.0491q-.0012,14.8649-.0005,29.73c0,.2915.0171.5837.002.8742-.0458.8812.2729,1.2039,1.2347,1.1642,2.269-.0935,4.5443-.0515,6.8169-.0351,1.2909.0093,1.2966.0356,1.3631-1.1721.0224-.4069.0076-.8159.0076-1.2239q.0011-8.22.0009-16.439c0-1.6784.2224-3.37,1.5647-4.4757a5.5732,5.5732,0,0,1,5.9414-.7462c1.9286.7839,2.5757,2.407,2.6854,4.3347.03.5231.0126,1.049.0127,1.5736q.0009,7.9572.001,15.9143c0,.4663.011.9326.0119,1.3989.0012.66.2962.8965.98.877,2.2132-.0632,4.4286-.0474,6.6426-.0886,1.6086-.03,1.7786-.1862,1.7783-1.8536q-.0022-10.0555-.0566-20.1109a17.561,17.561,0,0,0-1.4738-6.793,7.9641,7.9641,0,0,0-4.7785-4.5692,14.7971,14.7971,0,0,0-5.87-.5984C56.6828,38.0751,53.8505,38.6473,52.5661,42.0557ZM37.544,55.2391q0-4.5442,0-9.0885c-.0007-2.2722-.0086-4.5443-.0034-6.8164.0018-.7847-.1757-1.4037-1.1306-1.4038-2.3883,0-4.7767-.0031-7.165.0055a.9916.9916,0,0,0-1.0979,1.0779c-.0134.4074-.0241.8152-.0242,1.2228q-.0019,14.5941-.0006,29.1883c0,.35.0167.6994.0062,1.0485-.0283.9395.4048,1.388,1.36,1.3928q3.5817.0181,7.1629.0913c.6073.0131.8562-.2545.8732-.8138.0141-.4657.0188-.9319.019-1.3978Q37.545,62.4925,37.544,55.2391ZM32.7787,25.6472A4.373,4.373,0,0,0,28.129,30.2a4.5353,4.5353,0,0,0,4.6055,4.854,4.6567,4.6567,0,0,0,4.7975-4.7116A4.53,4.53,0,0,0,32.7787,25.6472Z" fill="#007bb5"/></g></svg>