<svg xmlns="http://www.w3.org/2000/svg" xmlns:xlink="http://www.w3.org/1999/xlink" viewBox="0 0 125 125"><defs><linearGradient id="Silver_04" x1="1.2431" y1="62.5" x2="123.7569" y2="62.5" gradientUnits="userSpaceOnUse"><stop offset="0" stop-color="#cbd1d6"/><stop offset="0.0891" stop-color="#c7ced2"/><stop offset="0.1696" stop-color="#bcc3c7"/><stop offset="0.2468" stop-color="#aab1b5"/><stop offset="0.2477" stop-color="#aab1b5"/><stop offset="0.2905" stop-color="#cad1d5"/><stop offset="0.3318" stop-color="#e1e8ec"/><stop offset="0.3706" stop-color="#eff6f9"/><stop offset="0.4045" stop-color="#f4fbfe"/><stop offset="0.6348" stop-color="#f4fbfe"/><stop offset="0.7528" stop-color="#979da1"/><stop offset="0.8258" stop-color="#b0b7bc"/><stop offset="0.8472" stop-color="#959b9f"/><stop offset="0.8706" stop-color="#7d8387"/><stop offset="0.8923" stop-color="#6f7478"/><stop offset="0.9101" stop-color="#6a6f73"/><stop offset="0.9251" stop-color="#71767a"/><stop offset="0.947" stop-color="#84898e"/><stop offset="0.9732" stop-color="#a4a9ae"/><stop offset="1" stop-color="#cbd1d6"/></linearGradient><linearGradient id="linear-gradient" x1="3.2259" y1="132.0731" x2="139.7861" y2="-28.2147" gradientTransform="translate(0 125) rotate(-90)" xlink:href="#Silver_04"/><linearGradient id="linear-gradient-2" x1="143.8277" y1="143.8277" x2="-14.9804" y2="-14.9804" gradientTransform="translate(0 125) rotate(-90)" xlink:href="#Silver_04"/><linearGradient id="linear-gradient-3" x1="275.4082" y1="-170.5009" x2="296.8347" y2="-170.5009" gradientTransform="matrix(1, 0, 0, -1, -235, -108.5)" gradientUnits="userSpaceOnUse"><stop offset="0" stop-color="#4a81c2" stop-opacity="0"/><stop offset="0.12" stop-color="#4a81c2" stop-opacity="0.13"/><stop offset="0.57" stop-color="#4a81c2"/></linearGradient><linearGradient id="linear-gradient-4" x1="275.4082" y1="-177.4301" x2="296.8422" y2="-177.4301" gradientTransform="matrix(1, 0, 0, -1, -235, -108.5)" gradientUnits="userSpaceOnUse"><stop offset="0" stop-color="#4a81c2" stop-opacity="0"/><stop offset="0.06" stop-color="#4a81c2" stop-opacity="0.3"/><stop offset="0.13" stop-color="#4a81c2" stop-opacity="0.6"/><stop offset="0.21" stop-color="#4a81c2"/></linearGradient><linearGradient id="linear-gradient-5" x1="275.4082" y1="-172.1642" x2="296.8422" y2="-172.1642" gradientTransform="matrix(1, 0, 0, -1, -235, -108.5)" gradientUnits="userSpaceOnUse"><stop offset="0" stop-color="#4a81c2" stop-opacity="0"/><stop offset="0.12" stop-color="#3565a6" stop-opacity="0.3"/><stop offset="0.33" stop-color="#2f5e9f" stop-opacity="0.8"/><stop offset="0.4" stop-color="#275497" stop-opacity="0.9"/><stop offset="0.47" stop-color="#214e91"/></linearGradient><linearGradient id="linear-gradient-6" x1="275.4082" y1="-175.7706" x2="296.8422" y2="-175.7706" gradientTransform="matrix(1, 0, 0, -1, -235, -108.5)" gradientUnits="userSpaceOnUse"><stop offset="0" stop-color="#4a81c2" stop-opacity="0"/><stop offset="0.07" stop-color="#214e91" stop-opacity="0.3"/><stop offset="0.14" stop-color="#214e91" stop-opacity="0.6"/><stop offset="0.23" stop-color="#214e91"/></linearGradient><linearGradient id="linear-gradient-7" x1="275.4082" y1="-173.9674" x2="296.8422" y2="-173.9674" gradientTransform="matrix(1, 0, 0, -1, -235, -108.5)" gradientUnits="userSpaceOnUse"><stop offset="0" stop-color="#4a81c2" stop-opacity="0"/><stop offset="0.08" stop-color="#6593c9" stop-opacity="0.25"/><stop offset="0.21" stop-color="#759fce" stop-opacity="0.5"/><stop offset="0.31" stop-color="#89b0d5" stop-opacity="0.75"/><stop offset="0.36" stop-color="#9dc1db"/></linearGradient><linearGradient id="linear-gradient-8" x1="275.4082" y1="-170.5009" x2="296.8347" y2="-170.5009" gradientTransform="matrix(1, 0, 0, -1, -235, -108.5)" gradientUnits="userSpaceOnUse"><stop offset="0" stop-color="#4a81c2" stop-opacity="0"/><stop offset="0.13" stop-color="#4a81c2" stop-opacity="0.13"/><stop offset="0.57" stop-color="#4a81c2"/></linearGradient><linearGradient id="linear-gradient-9" x1="275.4082" y1="-177.4301" x2="296.8422" y2="-177.4301" gradientTransform="matrix(1, 0, 0, -1, -235, -108.5)" gradientUnits="userSpaceOnUse"><stop offset="0" stop-color="#4a81c2" stop-opacity="0"/><stop offset="0.08" stop-color="#4a81c2" stop-opacity="0.1"/><stop offset="0.24" stop-color="#4a81c2" stop-opacity="0.7"/><stop offset="0.4" stop-color="#4a81c2"/></linearGradient><linearGradient id="linear-gradient-10" x1="275.4082" y1="-172.1642" x2="296.8422" y2="-172.1642" gradientTransform="matrix(1, 0, 0, -1, -235, -108.5)" gradientUnits="userSpaceOnUse"><stop offset="0" stop-color="#4a81c2" stop-opacity="0"/><stop offset="0.2" stop-color="#3565a6" stop-opacity="0.2"/><stop offset="0.3" stop-color="#2f5e9f" stop-opacity="0.6"/><stop offset="0.4" stop-color="#275497" stop-opacity="0.9"/><stop offset="0.48" stop-color="#214e91"/></linearGradient><linearGradient id="linear-gradient-11" x1="275.4082" y1="-175.7706" x2="296.8422" y2="-175.7706" gradientTransform="matrix(1, 0, 0, -1, -235, -108.5)" gradientUnits="userSpaceOnUse"><stop offset="0" stop-color="#214e91" stop-opacity="0"/><stop offset="0.2" stop-color="#214e91" stop-opacity="0.05"/><stop offset="0.3" stop-color="#214e91" stop-opacity="0.6"/><stop offset="0.4" stop-color="#214e91"/></linearGradient><linearGradient id="linear-gradient-12" x1="275.4082" y1="-173.9674" x2="296.8422" y2="-173.9674" gradientTransform="matrix(1, 0, 0, -1, -235, -108.5)" gradientUnits="userSpaceOnUse"><stop offset="0" stop-color="#9dc1db" stop-opacity="0"/><stop offset="0.1" stop-color="#9dc1db" stop-opacity="0.1"/><stop offset="0.2" stop-color="#9dc1db" stop-opacity="0.5"/><stop offset="0.3" stop-color="#9dc1db" stop-opacity="0.6"/><stop offset="0.4" stop-color="#9dc1db"/></linearGradient></defs><g id="BUTTON"><rect x="1.2431" y="1.2431" width="122.5138" height="122.5138" rx="19.0552" fill="url(#Silver_04)"/><path d="M20.2983,2.7432h84.4033a17.5552,17.5552,0,0,1,17.5552,17.5552v84.4033a17.5552,17.5552,0,0,1-17.5552,17.5552H20.2979A17.5547,17.5547,0,0,1,2.7432,104.7021V20.2983A17.5552,17.5552,0,0,1,20.2983,2.7432Z" transform="translate(125 0) rotate(90)" fill="url(#linear-gradient)"/><path d="M20.2983,4.7432h84.4033a15.5552,15.5552,0,0,1,15.5552,15.5552v84.4038a15.5547,15.5547,0,0,1-15.5547,15.5547H20.2979A15.5547,15.5547,0,0,1,4.7432,104.7021V20.2983A15.5552,15.5552,0,0,1,20.2983,4.7432Z" transform="translate(125 0) rotate(90)" fill="url(#linear-gradient-2)"/><path d="M20.2983,6.2432h84.4033a14.0552,14.0552,0,0,1,14.0552,14.0552v84.4038a14.0547,14.0547,0,0,1-14.0547,14.0547H20.2979A14.0547,14.0547,0,0,1,6.2432,104.7021V20.2983A14.0552,14.0552,0,0,1,20.2983,6.2432Z" transform="translate(125) rotate(90)" fill="#d1d3d4"/><path d="M104.7021,119.0068H20.2983A14.3212,14.3212,0,0,1,5.9932,104.7021V20.2983A14.3215,14.3215,0,0,1,20.2983,5.9932h84.4038a14.3212,14.3212,0,0,1,14.3047,14.3051v84.4038A14.3208,14.3208,0,0,1,104.7021,119.0068ZM20.2983,6.4932A13.8206,13.8206,0,0,0,6.4932,20.2983v84.4038a13.82,13.82,0,0,0,13.8051,13.8047h84.4038a13.82,13.82,0,0,0,13.8047-13.8047V20.2983A13.82,13.82,0,0,0,104.7021,6.4932Z" fill="#414042"/></g><g id="Shepherd"><g id="Layer_2" data-name="Layer 2"><g id="LOGO_WORDS" data-name="LOGO WORDS"><polygon points="81.122 62.833 61.85 62.833 61.85 61.169 79.783 61.169 81.122 62.833" fill="#214e91"/><polygon points="81.137 68.102 79.798 69.758 61.827 69.758 61.827 68.102 81.137 68.102" fill="#214e91"/><polygon points="82.46 64.496 61.865 64.496 61.865 62.833 81.114 62.833 82.46 64.496" fill="#9dc1db"/><polygon points="82.505 66.439 81.167 68.095 61.812 68.095 61.812 66.439 82.505 66.439" fill="#9dc1db"/><polygon points="83.276 65.464 82.482 66.439 61.835 66.439 61.835 64.496 82.49 64.496 83.276 65.464" fill="#4a81c2"/><path d="M42.9712,79.1633A17.548,17.548,0,0,1,54.1986,62.53a21.6,21.6,0,0,1,15.2117,0,17.886,17.886,0,0,1,5.9879,3.78,17.3885,17.3885,0,0,1,3.9088,5.7158,18.5833,18.5833,0,0,1,0,14.1457,17.5169,17.5169,0,0,1-3.9088,5.7233,18.008,18.008,0,0,1-5.9879,3.818,21.705,21.705,0,0,1-15.2117,0A17.6311,17.6311,0,0,1,42.9712,79.08Zm9.2616,0a9.0724,9.0724,0,0,0,.7561,3.78,9.4349,9.4349,0,0,0,2.0791,2.9789,9.223,9.223,0,0,0,3.0242,1.9657,10.01,10.01,0,0,0,7.3715,0,9.48,9.48,0,0,0,3.07-1.9657,9.2628,9.2628,0,0,0,2.1321-3.0091,9.5194,9.5194,0,0,0,0-7.5076,9.3452,9.3452,0,0,0-2.1019-2.9788,9.6091,9.6091,0,0,0-3.07-1.9658,10.0108,10.0108,0,0,0-7.3715,0,9.3455,9.3455,0,0,0-3.0242,1.9658,9.5174,9.5174,0,0,0-2.0792,2.9788A9.0736,9.0736,0,0,0,52.2328,79.1633Z" fill="#4a81c2"/><path d="M61.82,95.4864a18.9012,18.9012,0,0,1-7.0313-1.255A16.3149,16.3149,0,0,1,49.39,90.7687a15.969,15.969,0,0,1-3.5232-5.1865,16.8746,16.8746,0,0,1,0-12.8529,15.8315,15.8315,0,0,1,8.9214-8.6341,19.9749,19.9749,0,0,1,13.9794,0,16.4282,16.4282,0,0,1,5.4435,3.4627,15.9757,15.9757,0,0,1,3.5384,5.179,16.8753,16.8753,0,0,1,0,12.8528,15.9768,15.9768,0,0,1-3.5384,5.179,16.43,16.43,0,0,1-5.4435,3.4627A18.8407,18.8407,0,0,1,61.82,95.4864Zm0-27.3841a11.4909,11.4909,0,0,0-4.3095.8165,11.0532,11.0532,0,0,0-6.0484,5.814A10.9966,10.9966,0,0,0,57.51,89.4a11.6581,11.6581,0,0,0,8.6114,0,11.265,11.265,0,0,0,3.5912-2.2681,10.9953,10.9953,0,0,0,2.4648-3.5384,10.9482,10.9482,0,0,0-2.4723-12.369A11.3863,11.3863,0,0,0,61.82,68.1023Z" fill="#214e91"/><path d="M61.82,93.8307a17.2231,17.2231,0,0,1-6.3887-1.1417,14.505,14.505,0,0,1,0-27.0515,18.38,18.38,0,0,1,12.7546,0,14.8413,14.8413,0,0,1,4.8992,3.1A14.2287,14.2287,0,0,1,76.2526,73.38a15.22,15.22,0,0,1,0,11.53,14.2688,14.2688,0,0,1-3.1679,4.65,14.8184,14.8184,0,0,1-4.8992,3.1074A17.1558,17.1558,0,0,1,61.82,93.8307Zm0-27.3615a13.2,13.2,0,0,0-4.93.9375A12.6436,12.6436,0,0,0,56.8977,90.92a13.1779,13.1779,0,0,0,13.9642-2.6386,12.6331,12.6331,0,0,0-.0151-18.2889A13.0645,13.0645,0,0,0,61.82,66.4692Z" fill="#9dc1db"/><rect x="40.4082" y="61.1693" width="21.4265" height="1.6633" fill="url(#linear-gradient-3)"/><rect x="40.4082" y="68.1023" width="21.4341" height="1.6558" fill="url(#linear-gradient-4)"/><rect x="40.4082" y="62.8326" width="21.4341" height="1.6633" fill="url(#linear-gradient-5)"/><rect x="40.4082" y="66.4389" width="21.4341" height="1.6633" fill="url(#linear-gradient-6)"/><rect x="40.4082" y="64.4959" width="21.4341" height="1.9431" fill="url(#linear-gradient-7)"/><rect x="40.4082" y="61.1693" width="21.4265" height="1.6633" fill="url(#linear-gradient-8)"/><rect x="40.4082" y="68.1023" width="21.4341" height="1.6558" fill="url(#linear-gradient-9)"/><rect x="40.4082" y="62.8326" width="21.4341" height="1.6633" fill="url(#linear-gradient-10)"/><rect x="40.4082" y="66.4389" width="21.4341" height="1.6633" fill="url(#linear-gradient-11)"/><rect x="40.4082" y="64.4959" width="21.4341" height="1.9431" fill="url(#linear-gradient-12)"/><path d="M94.7305,61.5775V80.1764q0,1.5121.1134,3.062a8.3912,8.3912,0,0,0,.68,2.8352,4.7025,4.7025,0,0,0,1.7843,2.064,6.2829,6.2829,0,0,0,3.4325.7561,6.1772,6.1772,0,0,0,3.4173-.7561,4.899,4.899,0,0,0,1.7843-2.064,8.06,8.06,0,0,0,.7031-2.8352q.1134-1.5651.1134-3.062V61.5775h8.8156V81.4012q0,7.9839-3.6366,11.6583t-11.1971,3.6517q-7.5606,0-11.2123-3.6744T85.87,81.3785V61.5775Z" fill="#4a81c2"/><path d="M19.5865,79.8362,9.4252,62.0538H17.81l6.4265,11.0535,6.4113-11.0535h8.4829L28.4777,79.8362V96.2576H19.5865Z" fill="#4a81c2"/><path d="M13.0618,41.89c.7561-1.9431-.8392-1.807-2.1925-1.1795l-.4537-.8014c1.3912-.756,3.5157-2.1169,5.4965-2.1169,1.2853,0,2.3287.4838,2.3287,1.8069a4.9412,4.9412,0,0,1-.1059.9375,7.794,7.794,0,0,1,5.4663-2.7444,2.3135,2.3135,0,0,1,2.46,2.1569c.0024.0371.0039.0741.0046.1112,0,2.0565-2.1548,3.8634-4.1734,4.3171l-.37-.8166c.7561-.378,1.3231-.9375,1.3231-1.5952s-.4158-1.119-1.5121-1.119c-2.2681,0-3.8936,1.6709-4.869,3.5156l-3.6517,7.8932c-.2419.4537-.4839.9451-.8316.9451A2.2682,2.2682,0,0,1,9.962,50.7282c0-2.2682,1.7767-6.0484,2.7142-8.0368Z" fill="#4a81c2"/><path d="M34.0271,50.4485c4.2112,0,8.3166-2.5706,11.5147-6.26l.756.59a16.8372,16.8372,0,0,1-14.5615,8.4224c-2.8881,0-6.9557-.7561-6.9557-4.627,0-5.2924,6.0484-10.7813,12.1724-10.7813,2.4648,0,3.5459,1.4213,3.5459,3.0922,0,4.8312-7.999,7.8629-10.4335,7.8629C30.761,50.1687,32.5,50.4485,34.0271,50.4485Zm2.1245-8.6946c0-.5595-.31-.9073-1.0433-.9073-2.6084,0-4.4834,3.304-5.0429,5.64C33.2635,46.4868,36.1516,43.4928,36.1516,41.7539Z" fill="#4a81c2"/><path d="M49.8891,40.4988a8.1256,8.1256,0,0,1,5.4965-2.7066c2.3286,0,4.0675,1.565,4.0675,4.31,0,5.0126-5.4965,11.0988-11.7944,11.0988-3.0242,0-5.0731-1.9884-5.0731-4.7707a10.6749,10.6749,0,0,1,1.0736-4.3775l5.4663-11.7264c1.0433-2.2681-.6276-2.1547-2.0565-1.5121l-.4536-.756c1.3684-.7939,3.5156-2.1472,5.4965-2.1472,1.2852,0,2.3362.4838,2.3362,1.8069a5.7832,5.7832,0,0,1-.6654,2.4723Zm-3.0242,7.56c0,1.0812.5216,1.8448,1.633,1.8448,3.5535,0,5.92-4.3473,5.92-7.0237,0-1.187-.5973-2.0565-1.8145-2.0565-3.304.0227-5.7082,4.5817-5.7082,7.2581Z" fill="#4a81c2"/><path d="M67.316,53.2005c-5.0806,0-6.7137-2.51-6.7137-5.36,0-4.3851,4.2717-10.0479,11.061-10.0479,5.111,0,6.85,2.4647,6.85,5.3528C78.5132,47.6284,74.0978,53.2005,67.316,53.2005ZM73.69,43.3189a2.6766,2.6766,0,0,0-2.7823-2.85c-3.0242,0-5.5267,4.3473-5.5267,7.1976a2.7142,2.7142,0,0,0,2.85,2.85C71.2778,50.5165,73.69,46.1692,73.69,43.3189Z" fill="#4a81c2"/><path d="M86.3685,53.2005c-5.0731,0-6.7137-2.51-6.7137-5.36,0-4.3851,4.2793-10.0479,11.061-10.0479,5.1185,0,6.8574,2.4647,6.8574,5.3528C97.5732,47.6284,93.15,53.2005,86.3685,53.2005Zm6.4038-9.8816a2.6842,2.6842,0,0,0-2.7823-2.85c-3.0242,0-5.5343,4.3473-5.5343,7.1976a2.7219,2.7219,0,0,0,2.5873,2.85q.1276.0062.2555,0C90.3227,50.5165,92.7723,46.1692,92.7723,43.3189Z" fill="#4a81c2"/><path d="M100.1514,46.8119l2.7822-5.98h-.068c-1.1492,0-1.9506-.0378-1.9506-.5217s1.0811-2.23,1.565-2.23h1.7087l.9-1.9128h.756c1.7692,0,2.7445-.87,4.31-2.9562l.8014.28L108.8308,38.08h1.2929c1.1416,0,1.943.0378,1.943.5216s-1.0433,2.2682-1.565,2.2682h-2.9184l-3.13,6.57c-.4234,1.0131-.9451,2.54.8317,2.54,4.0373,0,8.1426-3.78,9.3221-5.005l.6955.6577c-2.2681,3.1679-7.6512,7.621-12.0968,7.621C100.5974,53.2005,97.8832,51.7035,100.1514,46.8119Z" fill="#4a81c2"/></g></g></g></svg>