<svg xmlns="http://www.w3.org/2000/svg" xmlns:xlink="http://www.w3.org/1999/xlink" viewBox="0 0 125 125"><defs><linearGradient id="Silver_04" x1="1.2431" y1="62.5" x2="123.7569" y2="62.5" gradientUnits="userSpaceOnUse"><stop offset="0" stop-color="#cbd1d6"/><stop offset="0.0891" stop-color="#c7ced2"/><stop offset="0.1696" stop-color="#bcc3c7"/><stop offset="0.2468" stop-color="#aab1b5"/><stop offset="0.2477" stop-color="#aab1b5"/><stop offset="0.2905" stop-color="#cad1d5"/><stop offset="0.3318" stop-color="#e1e8ec"/><stop offset="0.3706" stop-color="#eff6f9"/><stop offset="0.4045" stop-color="#f4fbfe"/><stop offset="0.6348" stop-color="#f4fbfe"/><stop offset="0.7528" stop-color="#979da1"/><stop offset="0.8258" stop-color="#b0b7bc"/><stop offset="0.8472" stop-color="#959b9f"/><stop offset="0.8706" stop-color="#7d8387"/><stop offset="0.8923" stop-color="#6f7478"/><stop offset="0.9101" stop-color="#6a6f73"/><stop offset="0.9251" stop-color="#71767a"/><stop offset="0.947" stop-color="#84898e"/><stop offset="0.9732" stop-color="#a4a9ae"/><stop offset="1" stop-color="#cbd1d6"/></linearGradient><linearGradient id="linear-gradient" x1="3.2259" y1="132.0731" x2="139.7861" y2="-28.2147" gradientTransform="translate(0 125) rotate(-90)" xlink:href="#Silver_04"/><linearGradient id="linear-gradient-2" x1="143.8277" y1="143.8277" x2="-14.9804" y2="-14.9804" gradientTransform="translate(0 125) rotate(-90)" xlink:href="#Silver_04"/><clipPath id="clip-path"><rect x="18.9424" y="18.9424" width="87.1153" height="87.1153" fill="none"/></clipPath></defs><g id="BUTTON"><rect x="1.2431" y="1.2431" width="122.5138" height="122.5138" rx="19.0552" fill="url(#Silver_04)"/><path d="M20.2983,2.7432h84.4033a17.5552,17.5552,0,0,1,17.5552,17.5552v84.4033a17.5552,17.5552,0,0,1-17.5552,17.5552H20.2979A17.5547,17.5547,0,0,1,2.7432,104.7021V20.2983A17.5552,17.5552,0,0,1,20.2983,2.7432Z" transform="translate(125 0) rotate(90)" fill="url(#linear-gradient)"/><path d="M20.2983,4.7432h84.4033a15.5552,15.5552,0,0,1,15.5552,15.5552v84.4038a15.5547,15.5547,0,0,1-15.5547,15.5547H20.2979A15.5547,15.5547,0,0,1,4.7432,104.7021V20.2983A15.5552,15.5552,0,0,1,20.2983,4.7432Z" transform="translate(125 0) rotate(90)" fill="url(#linear-gradient-2)"/><path d="M20.2983,6.2432h84.4033a14.0552,14.0552,0,0,1,14.0552,14.0552v84.4038a14.0547,14.0547,0,0,1-14.0547,14.0547H20.2979A14.0547,14.0547,0,0,1,6.2432,104.7021V20.2983A14.0552,14.0552,0,0,1,20.2983,6.2432Z" transform="translate(125) rotate(90)" fill="#d1d3d4"/><path d="M104.7021,119.0068H20.2983A14.3212,14.3212,0,0,1,5.9932,104.7021V20.2983A14.3215,14.3215,0,0,1,20.2983,5.9932h84.4038a14.3212,14.3212,0,0,1,14.3047,14.3051v84.4038A14.3208,14.3208,0,0,1,104.7021,119.0068ZM20.2983,6.4932A13.8206,13.8206,0,0,0,6.4932,20.2983v84.4038a13.82,13.82,0,0,0,13.8051,13.8047h84.4038a13.82,13.82,0,0,0,13.8047-13.8047V20.2983A13.82,13.82,0,0,0,104.7021,6.4932Z" fill="#414042"/></g><g id="tshirtsonline"><circle cx="62.5" cy="62.5" r="50.1176" fill="#001919"/><g clip-path="url(#clip-path)"><text transform="translate(22.4424 85.4725) scale(1.2922 1)" font-size="5.5318" fill="#fff" font-family="Shackleton-Narrow, Shackleton"><tspan letter-spacing="0.128em">t</tspan><tspan x="2.9871" y="0" letter-spacing="0.13em">shi</tspan><tspan x="11.8933" y="0" letter-spacing="0.1389em">r</tspan><tspan x="15.024" y="0" letter-spacing="0.128em">t</tspan><tspan x="18.0111" y="0" letter-spacing="0.144em">s</tspan><tspan x="21.0923" y="0" letter-spacing="0.129em">o</tspan><tspan x="24.5552" y="0" letter-spacing="0.12em">n</tspan><tspan x="28.2172" y="0" letter-spacing="0.13em">lin</tspan><tspan x="36.3154" y="0" letter-spacing="0.123em">e.</tspan><tspan x="41.7032" y="0" letter-spacing="0.1331em">c</tspan><tspan x="44.7292" y="0" letter-spacing="0.129em">o</tspan><tspan x="48.1921" y="0" letter-spacing="0.1301em">m.</tspan><tspan x="55.5221" y="0" letter-spacing="0.1119em">a</tspan><tspan x="58.8406" y="0">u</tspan></text><g clip-path="url(#clip-path)"><path d="M61.7321,47.1264A198.6989,198.6989,0,0,1,21.758,43.0569l.1239-.6021A198.0717,198.0717,0,0,0,62.66,46.51a198.0974,198.0974,0,0,0,40.7461-4.4418l.13.6008a198.6994,198.6994,0,0,1-40.8727,4.4556c-.31.0015-.6211.0021-.9306.0021" fill="#fff"/><rect x="19.3262" y="39.9697" width="2.4936" height="45.3516" fill="#fff"/><rect x="19.3262" y="39.9697" width="2.4936" height="45.3516" fill="none" stroke="#fff" stroke-miterlimit="10" stroke-width="0.7039"/><rect x="103.4706" y="39.9697" width="2.4933" height="45.3516" fill="#fff"/><rect x="103.4706" y="39.9697" width="2.4933" height="45.3516" fill="none" stroke="#fff" stroke-miterlimit="10" stroke-width="0.7039"/><polyline points="85.422 69.82 85.43 69.814 85.423 69.815 85.422 69.82" fill="#fff"/><path d="M93.3052,69.3485A4.6894,4.6894,0,0,0,91.5159,67.22a6.0635,6.0635,0,0,0-3.2471-.7738A5.0859,5.0859,0,0,0,85.15,67.96a4.8969,4.8969,0,0,0-.9362,1.4426c-.04.1076-.2621.7136-.2621.7136.5234-.1426,1.1684-.3,1.914-.4434a25.7335,25.7335,0,0,1,7.1357-.3633c.1015.0132.2029.0261.304.0393" fill="#91b54c"/><path d="M93.3052,69.3485A4.6894,4.6894,0,0,0,91.5159,67.22a6.0635,6.0635,0,0,0-3.2471-.7738A5.0859,5.0859,0,0,0,85.15,67.96a4.8969,4.8969,0,0,0-.9362,1.4426c-.04.1076-.2621.7136-.2621.7136.5234-.1426,1.1684-.3,1.914-.4434a25.7335,25.7335,0,0,1,7.1357-.3633C93.1027,69.3224,93.2041,69.3353,93.3052,69.3485Z" fill="none" stroke="#fff" stroke-linecap="round" stroke-linejoin="round" stroke-width="0.352"/><path d="M95.5057,59.91c-.24.5492-.2305.7474-.2828.5495-2.02-4.7817-.8347-10.2511-.7339-15.0435a48.4884,48.4884,0,0,0-15.7868,1.3814c-.1377.0369-.177.07-.1312.2244A59.4483,59.4483,0,0,1,80.6094,55.39a27.3622,27.3622,0,0,1,.0163,6.6049c-.0043,0-.0074-.0073-.0086-.01a2.6515,2.6515,0,0,0-.56-.7281c-.2622-.2584-.9294.2619-2.5247.8879a10.3019,10.3019,0,0,0-1.9272,1.1116c-.0615.0412-.1073.0725-.0658.1638a23.0739,23.0739,0,0,0,2.4334,4.328c.9576,1.5157,2.8839,1.5938,4.46,1.9924.3067-.0206,1.5695.6441,1.5821.2778,1.106-4.3292,7.4129-4.8686,9.2485-.78.0222.0464.0172.1521.1217.09,5.2946-2.2739,5.52-2.3228,7.0482-8.051.1035-.45-4.7454-1.7754-4.9273-1.3657" fill="#91b54c"/><path d="M95.5057,59.91c-.24.5492-.2305.7474-.2828.5495-2.02-4.7817-.8347-10.2511-.7339-15.0435a48.4884,48.4884,0,0,0-15.7868,1.3814c-.1377.0369-.177.07-.1312.2244A59.4483,59.4483,0,0,1,80.6094,55.39a27.3622,27.3622,0,0,1,.0163,6.6049c-.0043,0-.0074-.0073-.0086-.01a2.6515,2.6515,0,0,0-.56-.7281c-.2622-.2584-.9294.2619-2.5247.8879a10.3019,10.3019,0,0,0-1.9272,1.1116c-.0615.0412-.1073.0725-.0658.1638a23.0739,23.0739,0,0,0,2.4334,4.328c.9576,1.5157,2.8839,1.5938,4.46,1.9924.3067-.0206,1.5695.6441,1.5821.2778,1.106-4.3292,7.4129-4.8686,9.2485-.78.0222.0464.0172.1521.1217.09,5.2946-2.2739,5.52-2.3228,7.0482-8.051C100.5365,60.8256,95.6876,59.5007,95.5057,59.91Z" fill="none" stroke="#fff" stroke-miterlimit="10" stroke-width="0.352"/><polyline points="33.013 69.259 33.022 69.253 33.015 69.254 33.013 69.259" fill="#fff"/><path d="M40.8838,70.1655a4.6885,4.6885,0,0,0-1.3924-2.4073,6.063,6.063,0,0,0-3.0634-1.3261,5.0838,5.0838,0,0,0-3.3348.9493,4.8964,4.8964,0,0,0-1.1721,1.2579c-.0587.099-.382.6574-.382.6574.54-.0492,1.2028-.0932,1.9616-.1045a25.77,25.77,0,0,1,7.0906.8814Z" fill="#34558c"/><path d="M40.8838,70.1655a4.6885,4.6885,0,0,0-1.3924-2.4073,6.063,6.063,0,0,0-3.0634-1.3261,5.0838,5.0838,0,0,0-3.3348.9493,4.8964,4.8964,0,0,0-1.1721,1.2579c-.0587.099-.382.6574-.382.6574.54-.0492,1.2028-.0932,1.9616-.1045a25.77,25.77,0,0,1,7.0906.8814Z" fill="none" stroke="#fff" stroke-linecap="round" stroke-linejoin="round" stroke-width="0.352"/><path d="M44.665,61.25c-.3316.4991-.3568.6961-.3737.4923-1.16-5.06.9583-10.2406,1.89-14.9426A48.4923,48.4923,0,0,0,30.3939,45.419c-.142.0123-.1866.0387-.1681.1985a59.468,59.468,0,0,1,.5547,8.5943,27.3809,27.3809,0,0,1-1.1313,6.5072c-.0039-.0006-.0058-.0083-.0067-.0116a2.6487,2.6487,0,0,0-.4247-.8141c-.2133-.3-.9607.0965-2.6409.4357a10.3106,10.3106,0,0,0-2.0907.76c-.0676.03-.118.0528-.0931.15a23.0461,23.0461,0,0,0,1.6448,4.6845c.68,1.6593,2.5631,2.0708,4.0459,2.7371.3055.0328,1.434.9066,1.51.5482,1.8408-4.0717,8.1459-3.5078,9.2433.8375.0139.0495-.01.1527.1042.11,5.6093-1.32,5.84-1.33,8.3392-6.7049.18-.4259-4.3649-2.5726-4.6154-2.2007" fill="#34558c"/><path d="M44.665,61.25c-.3316.4991-.3568.6961-.3737.4923-1.16-5.06.9583-10.2406,1.89-14.9426A48.4923,48.4923,0,0,0,30.3939,45.419c-.142.0123-.1866.0387-.1681.1985a59.468,59.468,0,0,1,.5547,8.5943,27.3809,27.3809,0,0,1-1.1313,6.5072c-.0039-.0006-.0058-.0083-.0067-.0116a2.6487,2.6487,0,0,0-.4247-.8141c-.2133-.3-.9607.0965-2.6409.4357a10.3106,10.3106,0,0,0-2.0907.76c-.0676.03-.118.0528-.0931.15a23.0461,23.0461,0,0,0,1.6448,4.6845c.68,1.6593,2.5631,2.0708,4.0459,2.7371.3055.0328,1.434.9066,1.51.5482,1.8408-4.0717,8.1459-3.5078,9.2433.8375.0139.0495-.01.1527.1042.11,5.6093-1.32,5.84-1.33,8.3392-6.7049C49.4608,63.0252,44.9155,60.8785,44.665,61.25Z" fill="none" stroke="#fff" stroke-miterlimit="10" stroke-width="0.352"/><polyline points="59.202 46.95 59.211 46.956 59.204 46.954 59.202 46.95" fill="#fff"/><path d="M67.0648,46.8469A5.3187,5.3187,0,0,1,65.5,49.6276a5.3881,5.3881,0,0,1-1.4841.9419,4.2508,4.2508,0,0,1-1.6829.3983,4.4427,4.4427,0,0,1-3.2391-1.5726,6.1749,6.1749,0,0,1-1.0582-1.7228c-.05-.1322-.3236-.8753-.3236-.8753.5335.1226,1.19.2511,1.9454.35a22.8541,22.8541,0,0,0,2.8135.1715,34.4944,34.4944,0,0,0,4.3268-.5025c.091.0089.18.0193.2671.0307" fill="#db3b39"/><path d="M67.0648,46.8469A5.3187,5.3187,0,0,1,65.5,49.6276a5.3881,5.3881,0,0,1-1.4841.9419,4.2508,4.2508,0,0,1-1.6829.3983,4.4427,4.4427,0,0,1-3.2391-1.5726,6.1749,6.1749,0,0,1-1.0582-1.7228c-.05-.1322-.3236-.8753-.3236-.8753.5335.1226,1.19.2511,1.9454.35a22.8541,22.8541,0,0,0,2.8135.1715,34.4944,34.4944,0,0,0,4.3268-.5025C66.8887,46.8251,66.9778,46.8355,67.0648,46.8469Z" fill="none" stroke="#fff" stroke-miterlimit="10" stroke-width="0.352"/><path d="M74.9012,54.153c-1.9355-5.4159-2.5535-6.0278-7.8364-7.306a59.7835,59.7835,0,0,1-4.5751,4c-1.56-1.3541-3.2174-2.6436-4.73-4.03-.1776-.205-1.241.4675-1.528.473-4.2721.8156-4.9458,3.198-6.3155,6.8975-.0335.0941.0148.1217.0793.1574a10.3223,10.3223,0,0,0,2.017.9395c2.28.697,2.5255,1.228,3.0867-.11a26.2661,26.2661,0,0,1,.5676,6.57,59.453,59.453,0,0,1-1.3018,8.5135c4.69,1.3568,10.6564.9647,15.9974.212-.5178-4.7653-2.1762-10.11-.58-15.05.0347-.2019.0424-.0034.3294.5228.217.3924,4.9322-1.35,4.79-1.79" fill="#db3b39"/><path d="M74.9012,54.153c-1.9355-5.4159-2.5535-6.0278-7.8364-7.306a59.7835,59.7835,0,0,1-4.5751,4c-1.56-1.3541-3.2174-2.6436-4.73-4.03-.1776-.205-1.241.4675-1.528.473-4.2721.8156-4.9458,3.198-6.3155,6.8975-.0335.0941.0148.1217.0793.1574a10.3223,10.3223,0,0,0,2.017.9395c2.28.697,2.5255,1.228,3.0867-.11a26.2661,26.2661,0,0,1,.5676,6.57,59.453,59.453,0,0,1-1.3018,8.5135c4.69,1.3568,10.6564.9647,15.9974.212-.5178-4.7653-2.1762-10.11-.58-15.05.0347-.2019.0424-.0034.3294.5228C70.3286,56.3356,75.0438,54.5931,74.9012,54.153Z" fill="none" stroke="#fff" stroke-miterlimit="10" stroke-width="0.352"/><rect x="44.3884" y="43.3321" width="0.3411" height="2.8477" fill="#fff"/><rect x="44.3884" y="43.3321" width="0.3411" height="2.8477" fill="none" stroke="#fff" stroke-miterlimit="10" stroke-width="0.7039"/><rect x="32.4938" y="42.4221" width="0.3411" height="2.8477" fill="#fff"/><rect x="32.4938" y="42.4221" width="0.3411" height="2.8477" fill="none" stroke="#fff" stroke-miterlimit="10" stroke-width="0.7039"/><rect x="58.1039" y="43.6929" width="0.3411" height="2.8477" fill="#fff"/><rect x="58.1039" y="43.6929" width="0.3411" height="2.8477" fill="none" stroke="#fff" stroke-miterlimit="10" stroke-width="0.7039"/><rect x="67.3746" y="43.6929" width="0.3414" height="2.8477" fill="#fff"/><rect x="67.3746" y="43.6929" width="0.3414" height="2.8477" fill="none" stroke="#fff" stroke-miterlimit="10" stroke-width="0.7039"/><rect x="81.7444" y="43.2362" width="0.3411" height="2.8477" fill="#fff"/><rect x="81.7444" y="43.2362" width="0.3411" height="2.8477" fill="none" stroke="#fff" stroke-miterlimit="10" stroke-width="0.7039"/><rect x="92.1651" y="42.4221" width="0.3411" height="2.8477" fill="#fff"/><rect x="92.1651" y="42.4221" width="0.3411" height="2.8477" fill="none" stroke="#fff" stroke-miterlimit="10" stroke-width="0.7039"/></g></g></g></svg>